<svg xmlns="http://www.w3.org/2000/svg" viewBox="0 0 87.74 13.02"><defs><style>.cls-1{fill:none;stroke:#6c3a27;stroke-miterlimit:10;}</style></defs><g id="Слой_2" data-name="Слой 2"><g id="OBJECTS"><path class="cls-1" d="M12.2,6.39c0,4-2.68,6.13-5.94,6.13A5.56,5.56,0,0,1,.5,6.61,5.77,5.77,0,0,1,6.45.5,5.52,5.52,0,0,1,12.2,6.39Zm-9.93.19c0,2.49,1.48,4.72,4.08,4.72s4.11-2.2,4.11-4.84c0-2.32-1.34-4.73-4.09-4.73S2.27,4,2.27,6.58Z"/><path class="cls-1" d="M18.14.85A18.48,18.48,0,0,1,21.32.6a5.64,5.64,0,0,1,3.7,1,2.78,2.78,0,0,1,1,2.21,3.13,3.13,0,0,1-2.41,3v0A3,3,0,0,1,25.5,9.14a18.18,18.18,0,0,0,1,3.19h-1.7a13.84,13.84,0,0,1-.86-2.78c-.38-1.61-1.06-2.21-2.56-2.26H19.8v5H18.14Zm1.66,5.3h1.69c1.76,0,2.89-.88,2.89-2.21,0-1.51-1.2-2.16-2.95-2.18a7.26,7.26,0,0,0-1.63.14Z"/><path class="cls-1" d="M34.33,8.67,33,12.33H31.29L35.64.69h2L42,12.33H40.24L38.87,8.67Zm4.2-1.17L37.27,4.14C37,3.38,36.8,2.69,36.61,2h0c-.19.69-.4,1.4-.65,2.11L34.67,7.5Z"/><path class="cls-1" d="M47.68,12.33V.69h1.8l4.11,5.89a32.24,32.24,0,0,1,2.3,3.78h0a47.92,47.92,0,0,1-.18-4.79V.69h1.55V12.33H55.62L51.56,6.42a35.26,35.26,0,0,1-2.4-3.88l-.06,0c.1,1.46.14,2.86.14,4.8v5Z"/><path class="cls-1" d="M73.72,11.81a12.7,12.7,0,0,1-3.93.64A7,7,0,0,1,65,10.92a5.72,5.72,0,0,1-1.78-4.34c0-3.47,2.64-6,6.93-6a8.66,8.66,0,0,1,3.19.53l-.4,1.23a7.13,7.13,0,0,0-2.83-.5C67,1.83,65,3.59,65,6.51s2,4.7,4.94,4.7a6,6,0,0,0,2.21-.31V7.43H69.5V6.22h4.22Z"/><path class="cls-1" d="M86.67,6.87h-5v4.2h5.54v1.26H80V.69H87V2H81.7V5.63h5Z"/></g></g></svg>