<svg xmlns="http://www.w3.org/2000/svg" xmlns:xlink="http://www.w3.org/1999/xlink" viewBox="0 0 100.37 99"><defs><style>.cls-1,.cls-2,.cls-4{fill:none;stroke:#6c3a27;stroke-miterlimit:10;}.cls-2{stroke-linecap:round;stroke-width:1.65px;}.cls-3{clip-path:url(#clip-path);}.cls-4{stroke-width:2.02px;}</style><clipPath id="clip-path"><path class="cls-1" d="M86.36,2.68,2,56.41a2.42,2.42,0,0,0-.39,3.78c7.37,7,33.33,27.36,68,3.34,0,0,29.58-18.35,20.48-59.34A2.42,2.42,0,0,0,86.36,2.68Z"/></clipPath></defs><g id="Слой_2" data-name="Слой 2"><g id="OBJECTS"><path class="cls-2" d="M86.8,2.46s6.79-5.77,10.87,4.36,4,71.52-67.18,67.62"/><path class="cls-2" d="M86.36,2.68,2,56.41a2.42,2.42,0,0,0-.39,3.78c7.37,7,33.33,27.36,68,3.34,0,0,29.58-18.35,20.48-59.34A2.42,2.42,0,0,0,86.36,2.68Z"/><path class="cls-1" d="M98.46,6.82C94.38-3.31,87.59,2.46,87.59,2.46v0a2.41,2.41,0,0,1,3.23,1.71c9.1,41-20.48,59.34-20.48,59.34-9.25,6.41-17.86,9.64-25.68,10.83C102.39,70.31,102.27,16.27,98.46,6.82Z"/><g class="cls-3"><path class="cls-4" d="M30.48,57.66a5.62,5.62,0,0,1-7.31,3.58h0A33.72,33.72,0,0,1,11.5,53a5,5,0,0,1,.56-7.68c7.24-5.55,14.55-11,21.82-16.52,1.16-.88,2.34-1.31,3.61-.31a2.94,2.94,0,0,1,.87,3.58q-4,12.72-7.85,25.47Z"/><path class="cls-4" d="M41.33,65.18A5.1,5.1,0,0,1,36,59c1.14-8.38,2.35-16.76,3.53-25.14.1-.72.11-1.44.22-2.16A2.54,2.54,0,0,1,42,29.49a2.37,2.37,0,0,1,2.76,1.24c4.36,8.23,8.75,16.43,13,24.69A5.06,5.06,0,0,1,55,62.73,77.24,77.24,0,0,1,41.33,65.18Z"/><path class="cls-4" d="M82.58,23c0,3.77-2.65,6.05-6.41,5.52-9-1.25-17.93-2.55-26.91-3.78a2.49,2.49,0,0,1-2.4-2.07,2.52,2.52,0,0,1,1.46-3c8-4.25,16-8.54,24-12.78,3.41-1.81,6.56-.62,7.88,3A78.44,78.44,0,0,1,82.58,23Z"/><path class="cls-4" d="M75.22,34.07a5.57,5.57,0,0,1,3.34,7.13,4.3,4.3,0,0,1-.2.54,33.33,33.33,0,0,1-7.53,10.81c-3.44,3.34-6.26,1.39-9.91-3.23-5.82-7.37-8-9.74-13.69-17.89-1.35-1.94-2.47-2.8-1.44-4.3A2.58,2.58,0,0,1,49,26.07c3.53,1.06,7.06,2.14,10.59,3.21l15.61,4.77Z"/></g><path class="cls-1" d="M86.36,2.68,2,56.41a2.42,2.42,0,0,0-.39,3.78c7.37,7,33.33,27.36,68,3.34,0,0,29.58-18.35,20.48-59.34A2.42,2.42,0,0,0,86.36,2.68Z"/><path class="cls-1" d="M14.57,92.37c0,4-2.68,6.13-6,6.13a5.56,5.56,0,0,1-5.76-5.9,5.77,5.77,0,0,1,6-6.12A5.52,5.52,0,0,1,14.57,92.37Zm-9.94.19c0,2.49,1.48,4.72,4.08,4.72s4.11-2.2,4.11-4.84c0-2.31-1.33-4.73-4.09-4.73S4.63,90,4.63,92.56Z"/><path class="cls-1" d="M20.51,86.83a18.28,18.28,0,0,1,3.17-.25,5.61,5.61,0,0,1,3.7,1,2.79,2.79,0,0,1,1,2.22,3.12,3.12,0,0,1-2.41,3v0a2.94,2.94,0,0,1,1.88,2.35,17.07,17.07,0,0,0,1,3.19H27.14a13.84,13.84,0,0,1-.86-2.78c-.38-1.6-1.06-2.21-2.56-2.26H22.16v5H20.51Zm1.65,5.3h1.69c1.77,0,2.89-.88,2.89-2.21,0-1.5-1.2-2.16-2.95-2.18a7.4,7.4,0,0,0-1.63.14Z"/><path class="cls-1" d="M36.69,94.65l-1.33,3.66H33.65L38,86.67h2l4.37,11.64H42.6l-1.37-3.66Zm4.2-1.17-1.25-3.35c-.29-.76-.48-1.46-.67-2.13h0c-.19.69-.4,1.4-.64,2.11L37,93.48Z"/><path class="cls-1" d="M50,98.31V86.67h1.81L56,92.56a33.08,33.08,0,0,1,2.3,3.78h0a47.77,47.77,0,0,1-.19-4.79V86.67h1.56V98.31H58l-4.06-5.9a36.18,36.18,0,0,1-2.39-3.89l-.06,0c.09,1.46.13,2.86.13,4.8v5Z"/><path class="cls-1" d="M76.08,97.79a12.7,12.7,0,0,1-3.93.64,7,7,0,0,1-4.78-1.53,5.69,5.69,0,0,1-1.79-4.34c0-3.47,2.64-6,6.93-6a8.41,8.41,0,0,1,3.19.54l-.39,1.22a7.36,7.36,0,0,0-2.83-.5c-3.12,0-5.15,1.76-5.15,4.68s2,4.7,4.94,4.7a5.92,5.92,0,0,0,2.2-.31V93.41h-2.6V92.2h4.21Z"/><path class="cls-1" d="M89,92.85h-5v4.2h5.55v1.26h-7.2V86.67h6.91v1.26H84.06v3.68h5Z"/></g></g></svg>