<svg xmlns="http://www.w3.org/2000/svg" viewBox="0 0 113.1 129.36"><defs><style>.cls-1{fill:#6c3a27;}</style></defs><g id="Слой_2" data-name="Слой 2"><g id="OBJECTS"><path class="cls-1" d="M51.32,30A49.68,49.68,0,1,1,1.55,81.57,49.61,49.61,0,0,1,51.32,30Zm-.1,6.59C27.35,36.43,8.09,56.46,8.09,79.69c0,22.58,18.32,43.1,43.12,43.16a43.13,43.13,0,0,0,0-86.26Z"/><path class="cls-1" d="M12.73,79.86c.26-1.87.45-4.37,1-6.79.65-3.07,3.22-4.46,6.21-3.51,7.33,2.35,14.64,4.75,22,7.12a17.49,17.49,0,0,0,1.75.5,2.39,2.39,0,0,1,2.05,2.47,2.44,2.44,0,0,1-2,2.54c-7.08,2.25-14.14,4.54-21.2,6.81l-2.38.77c-3.36,1-6.16-.65-6.73-4.15C13.13,83.93,13,82.21,12.73,79.86Z"/><path class="cls-1" d="M83.43,60.32a5,5,0,0,1-2.7,4.29c-7.65,3.93-15.3,7.86-23,11.67a3.09,3.09,0,0,1-2.51-.45c-1-.71-1-1.9-.46-3q2.23-4.47,4.5-8.92,3.36-6.6,6.75-13.18c1.68-3.28,4.56-4,7.6-1.95a30.65,30.65,0,0,1,8.62,8.7A17.08,17.08,0,0,1,83.43,60.32Z"/><path class="cls-1" d="M31.92,111.9a13.06,13.06,0,0,1-2.74-1.05A30.86,30.86,0,0,1,20,101.61a4.64,4.64,0,0,1,1.74-6.84C29.13,90.92,36.59,87.15,44,83.34c1.18-.61,2.31-.81,3.31.3A2.69,2.69,0,0,1,47.56,87q-5.62,10.85-11.15,21.74A5.32,5.32,0,0,1,31.92,111.9Z"/><path class="cls-1" d="M31.55,47.59c2.38.21,3.79,1,4.62,2.62q5.74,11.25,11.45,22.52A2.48,2.48,0,0,1,47.08,76c-1,.9-2,.56-3,0C37,72.39,29.84,68.8,22.73,65.18c-4-2-4.64-4.76-2.11-8.36a30.51,30.51,0,0,1,8.15-8A14.85,14.85,0,0,1,31.55,47.59Z"/><path class="cls-1" d="M51.23,118.14c-2.1-.27-4.2-.45-6.27-.81a4.68,4.68,0,0,1-3.86-6.42c2.37-7.39,4.79-14.75,7.19-22.13.21-.63.33-1.28.54-1.91a2.33,2.33,0,0,1,2.44-1.64,2.16,2.16,0,0,1,2.29,1.56c2.62,8.11,5.28,16.22,7.84,24.35a4.64,4.64,0,0,1-3.72,6.15C55.56,117.69,53.4,117.86,51.23,118.14Z"/><path class="cls-1" d="M89.61,78.75c-.24,2.63-.33,4.86-.69,7-.55,3.41-3.35,5-6.66,4-7.89-2.55-15.78-5.16-23.68-7.7a2.27,2.27,0,0,1-1.84-2.25,2.31,2.31,0,0,1,1.79-2.46c7.91-2.55,15.79-5.15,23.69-7.71,3.36-1.09,6,.49,6.64,3.94C89.19,75.42,89.4,77.29,89.61,78.75Z"/><path class="cls-1" d="M83.45,99.12a19.77,19.77,0,0,1-1.33,3,30.82,30.82,0,0,1-8.52,8.55c-2.94,2-5.92,1.28-7.53-1.84-3.83-7.45-7.61-14.91-11.41-22.37a2.15,2.15,0,0,1,.39-2.73,2.39,2.39,0,0,1,3-.44q4.52,2.28,9,4.59l13.33,6.79A5.24,5.24,0,0,1,83.45,99.12Z"/><path class="cls-1" d="M51.14,41.27c2.29.29,4.46.44,6.57.87a4.61,4.61,0,0,1,3.68,6.15q-3.86,12.12-8,24.16a3.32,3.32,0,0,1-2.16,1.65,2,2,0,0,1-2.38-1.61C46.24,64.32,43.55,56.17,41,48a4.46,4.46,0,0,1,3.4-5.74C46.61,41.74,48.94,41.57,51.14,41.27Z"/><path class="cls-1" d="M16.86,18.18c4.11,5.5,3,10.91-1.12,14s-9.63,2.1-13.25-2.73C-1.3,24.35-.64,18.68,3.63,15.48S13.31,13.45,16.86,18.18ZM4.66,27.72c2.56,3.42,6.69,5.09,9.94,2.66s2.86-6.84.15-10.47c-2.38-3.17-6.52-5.25-10-2.67S2,24.22,4.66,27.72Z"/><path class="cls-1" d="M18.81,7a26.48,26.48,0,0,1,4.5-2.09c2.58-1,4.43-1.09,6-.46a5,5,0,0,1,2.78,3,5.24,5.24,0,0,1-1.78,6.07l0,.09c1.63,0,3,1,4.14,2.77A31.2,31.2,0,0,0,37.79,21l-2.51.92a27.43,27.43,0,0,1-2.89-4c-1.5-2.38-2.86-3-5.08-2.26L25,16.47l3,8.12-2.42.88Zm5.55,7.65,2.47-.91c2.58-1,3.7-3,2.92-5.11-.89-2.41-3-2.83-5.59-1.92a10.38,10.38,0,0,0-2.31,1.1Z"/><path class="cls-1" d="M43,14l-1.59,6.42-2.66.2L44,.23,47.12,0l8.29,19.39-2.74.21-2.6-6.1Zm6.38-2.5L47,6c-.55-1.27-.93-2.43-1.31-3.56h-.06c-.21,1.2-.44,2.44-.73,3.68L43.39,12Z"/><path class="cls-1" d="M57.68,19.69,62.19.25l2.74.64,3.94,11.28a55,55,0,0,1,2,7.13l.06,0c.37-2.65.87-5,1.57-8l1.89-8.14,2.36.55L72.27,23.08l-2.54-.59L65.85,11.2a63.5,63.5,0,0,1-2.13-7.34h-.09c-.43,2.49-.91,4.84-1.66,8.06L60,20.24Z"/><path class="cls-1" d="M89.27,31.54a18.37,18.37,0,0,1-5.82-2.19,10.26,10.26,0,0,1-5.07-6.08,10.3,10.3,0,0,1,1.41-7.81c3.07-5.1,8.81-6.75,14.56-3.32a12.21,12.21,0,0,1,3.8,3.33L96.55,17a10.49,10.49,0,0,0-3.36-3c-4.17-2.48-8.44-1.51-11,2.79s-1.5,8.48,2.5,10.86a8.48,8.48,0,0,0,3.22,1.3l3-5.11-3.49-2.08,1.06-1.78,5.65,3.36Z"/><path class="cls-1" d="M105.13,35.74l-5.36-5.62-5.21,5,6,6.26L99,42.83l-7.75-8.12,14.45-13.77,7.43,7.8-1.56,1.5-5.66-5.94-4.56,4.35,5.35,5.62Z"/></g></g></svg>