<svg xmlns="http://www.w3.org/2000/svg" xmlns:xlink="http://www.w3.org/1999/xlink" viewBox="0 0 100.37 75.75"><defs><style>.cls-1,.cls-2,.cls-5{fill:none;}.cls-1,.cls-2,.cls-3,.cls-5{stroke:#6c3a27;stroke-miterlimit:10;}.cls-2{stroke-linecap:round;stroke-width:1.65px;}.cls-3{fill:#cf9b61;}.cls-4{clip-path:url(#clip-path);}.cls-5{stroke-width:2.02px;}</style><clipPath id="clip-path"><path class="cls-1" d="M86.36,2.68,2,56.41a2.42,2.42,0,0,0-.39,3.78c7.37,7,33.33,27.36,68,3.34,0,0,29.58-18.35,20.48-59.34A2.42,2.42,0,0,0,86.36,2.68Z"/></clipPath></defs><g id="Слой_2" data-name="Слой 2"><g id="OBJECTS"><path class="cls-2" d="M86.8,2.46s6.79-5.77,10.87,4.36,4,71.52-67.18,67.62"/><path class="cls-2" d="M86.36,2.68,2,56.41a2.42,2.42,0,0,0-.39,3.78c7.37,7,33.33,27.36,68,3.34,0,0,29.58-18.35,20.48-59.34A2.42,2.42,0,0,0,86.36,2.68Z"/><path class="cls-3" d="M98.46,6.82C94.38-3.31,87.59,2.46,87.59,2.46v0a2.41,2.41,0,0,1,3.23,1.71c9.1,41-20.48,59.34-20.48,59.34-9.25,6.41-17.86,9.64-25.68,10.83C102.39,70.31,102.27,16.27,98.46,6.82Z"/><g class="cls-4"><path class="cls-5" d="M30.48,57.66a5.62,5.62,0,0,1-7.31,3.58h0A33.72,33.72,0,0,1,11.5,53a5,5,0,0,1,.56-7.68c7.24-5.55,14.55-11,21.82-16.52,1.16-.88,2.34-1.31,3.61-.31a2.94,2.94,0,0,1,.87,3.58q-4,12.72-7.85,25.47Z"/><path class="cls-5" d="M41.33,65.18A5.1,5.1,0,0,1,36,59c1.14-8.38,2.35-16.76,3.53-25.14.1-.72.11-1.44.22-2.16A2.54,2.54,0,0,1,42,29.49a2.37,2.37,0,0,1,2.76,1.24c4.36,8.23,8.75,16.43,13,24.69A5.06,5.06,0,0,1,55,62.73,77.24,77.24,0,0,1,41.33,65.18Z"/><path class="cls-5" d="M82.58,23c0,3.77-2.65,6.05-6.41,5.52-9-1.25-17.93-2.55-26.91-3.78a2.49,2.49,0,0,1-2.4-2.07,2.52,2.52,0,0,1,1.46-3c8-4.25,16-8.54,24-12.78,3.41-1.81,6.56-.62,7.88,3A78.44,78.44,0,0,1,82.58,23Z"/><path class="cls-5" d="M75.22,34.07a5.57,5.57,0,0,1,3.34,7.13,4.3,4.3,0,0,1-.2.54,33.33,33.33,0,0,1-7.53,10.81c-3.44,3.34-6.26,1.39-9.91-3.23-5.82-7.37-8-9.74-13.69-17.89-1.35-1.94-2.47-2.8-1.44-4.3A2.58,2.58,0,0,1,49,26.07c3.53,1.06,7.06,2.14,10.59,3.21l15.61,4.77Z"/></g><path class="cls-1" d="M86.36,2.68,2,56.41a2.42,2.42,0,0,0-.39,3.78c7.37,7,33.33,27.36,68,3.34,0,0,29.58-18.35,20.48-59.34A2.42,2.42,0,0,0,86.36,2.68Z"/></g></g></svg>