<svg xmlns="http://www.w3.org/2000/svg" viewBox="0 0 94.9 94.9"><defs><style>.cls-1{fill:none;stroke:#6c3a27;stroke-miterlimit:10;stroke-width:1.73px;}</style></defs><g id="Слой_2" data-name="Слой 2"><g id="OBJECTS"><path class="cls-1" d="M47.56.87A46.58,46.58,0,1,1,.89,49.22,46.51,46.51,0,0,1,47.56.87ZM47.47,7C25.09,6.89,7,25.68,7,47.46A40.43,40.43,0,1,0,47.47,7Z"/><path class="cls-1" d="M12.28,41.25A4.23,4.23,0,0,1,18.1,38c6.87,2.2,13.73,4.45,20.6,6.68.54.17,1.09.34,1.64.46a2.24,2.24,0,0,1,1.92,2.31,2.3,2.3,0,0,1-1.83,2.39Q30.48,53,20.55,56.18c-.74.24-1.48.5-2.22.73A4.61,4.61,0,0,1,12,53,63.66,63.66,0,0,1,12.28,41.25Z"/><path class="cls-1" d="M77.67,29.29a4.72,4.72,0,0,1-2.54,4C68,37,60.79,40.68,53.56,44.26a2.89,2.89,0,0,1-2.36-.43A2,2,0,0,1,50.78,41q2.09-4.19,4.21-8.36,3.15-6.18,6.33-12.36c1.58-3.07,4.28-3.76,7.13-1.83a28.93,28.93,0,0,1,8.08,8.16A16.14,16.14,0,0,1,77.67,29.29Z"/><path class="cls-1" d="M29.37,77.65a12.2,12.2,0,0,1-2.57-1A28.74,28.74,0,0,1,18.17,68a4.35,4.35,0,0,1,1.62-6.42c7-3.61,14-7.14,20.94-10.71,1.11-.57,2.17-.76,3.1.28a2.51,2.51,0,0,1,.2,3.15Q38.77,64.48,33.58,74.69A5,5,0,0,1,29.37,77.65Z"/><path class="cls-1" d="M29,17.36c2.24.2,3.56.95,4.33,2.46,3.6,7,7.15,14.07,10.74,21.1a2.33,2.33,0,0,1-.5,3.09c-.94.85-1.85.53-2.85,0-6.65-3.41-13.32-6.77-20-10.16C17,32,16.41,29.39,18.78,26a28.65,28.65,0,0,1,7.64-7.49A15.07,15.07,0,0,1,29,17.36Z"/><path class="cls-1" d="M41.6,82.74a4.38,4.38,0,0,1-3.63-6c2.22-6.93,4.5-13.84,6.75-20.75.19-.59.31-1.21.51-1.79a2.19,2.19,0,0,1,2.28-1.55,2,2,0,0,1,2.15,1.47c2.46,7.61,5,15.21,7.35,22.83a4.36,4.36,0,0,1-3.49,5.77A66.85,66.85,0,0,1,41.6,82.74Z"/><path class="cls-1" d="M82.82,53.18c-.52,3.19-3.15,4.72-6.25,3.71-7.4-2.4-14.8-4.84-22.2-7.23a2.12,2.12,0,0,1-1.73-2.1,2.18,2.18,0,0,1,1.68-2.31c7.41-2.39,14.81-4.83,22.21-7.23,3.15-1,5.64.47,6.23,3.7A68.32,68.32,0,0,1,82.82,53.18Z"/><path class="cls-1" d="M77.68,65.67a17.86,17.86,0,0,1-1.25,2.78,28.71,28.71,0,0,1-8,8c-2.75,1.87-5.55,1.21-7.06-1.73-3.59-7-7.13-14-10.7-21a2,2,0,0,1,.37-2.56,2.21,2.21,0,0,1,2.84-.42q4.24,2.15,8.48,4.3l12.5,6.37A4.91,4.91,0,0,1,77.68,65.67Z"/><path class="cls-1" d="M53.55,12.25A4.32,4.32,0,0,1,57,18q-3.61,11.36-7.45,22.65a3.12,3.12,0,0,1-2,1.54,1.89,1.89,0,0,1-2.23-1.51c-2.49-7.66-5-15.3-7.45-23A4.18,4.18,0,0,1,41,12.34,60.39,60.39,0,0,1,53.55,12.25Z"/></g></g></svg>